<?xml version="1.0" encoding="UTF-8"?>
<svg id="Layer_1" xmlns="http://www.w3.org/2000/svg" version="1.1" xmlns:xlink="http://www.w3.org/1999/xlink" viewBox="0 0 375.83 307.4">
  <!-- Generator: Adobe Illustrator 29.6.1, SVG Export Plug-In . SVG Version: 2.1.1 Build 9)  -->
  <defs>
    <style>
      .st0 {
        fill: url(#linear-gradient2);
      }

      .st1 {
        fill: url(#linear-gradient1);
      }

      .st2 {
        fill: none;
      }

      .st3 {
        clip-path: url(#clippath-1);
      }

      .st4 {
        clip-path: url(#clippath-3);
      }

      .st5 {
        fill: url(#linear-gradient3);
      }

      .st6 {
        fill: #d6a251;
      }

      .st7 {
        clip-path: url(#clippath-2);
      }

      .st8 {
        fill: url(#linear-gradient);
      }

      .st9 {
        clip-path: url(#clippath);
      }
    </style>
    <clipPath id="clippath">
      <path class="st2" d="M209.34,232.88c-29.86,0-57.39-9.93-79.47-26.67-6.58-4.98-12.69-10.57-18.22-16.69-4.22-4.67-10.49-7.08-16.74-6.33-.11.01-.22.03-.33.04-23.48,1.74-35.46,28.98-22.89,45.01,5.6,7.14,12.74,12.93,19.93,18.46,25.4,19.64,57.25,31.32,91.82,31.32,76.01,0,138.85-56.41,148.94-129.65-18.99,49.44-66.92,84.52-123.03,84.52"/>
    </clipPath>
    <linearGradient id="linear-gradient" x1="-231.75" y1="530.17" x2="-230.75" y2="530.17" gradientTransform="translate(61655.59 141111.33) scale(265.76 -265.76)" gradientUnits="userSpaceOnUse">
      <stop offset="0" stop-color="#7f5a28"/>
      <stop offset="0" stop-color="#7f5a28"/>
      <stop offset=".06" stop-color="#8c652e"/>
      <stop offset=".26" stop-color="#b18341"/>
      <stop offset=".42" stop-color="#c7964c"/>
      <stop offset=".52" stop-color="#d09d51"/>
      <stop offset=".77" stop-color="#a87b3d"/>
      <stop offset="1" stop-color="#815a29"/>
      <stop offset="1" stop-color="#815a29"/>
    </linearGradient>
    <clipPath id="clippath-1">
      <path class="st2" d="M46.16,157.46c18.99-49.43,66.92-84.52,123.03-84.52,29.86,0,57.39,9.93,79.47,26.67,6.59,4.98,12.69,10.57,18.22,16.69,4.22,4.67,10.49,7.08,16.74,6.33.11-.01.22-.03.33-.04,23.48-1.74,35.46-28.98,22.89-45.01-5.6-7.14-12.74-12.93-19.93-18.46-25.4-19.64-57.24-31.32-91.82-31.32-76.01,0-138.85,56.41-148.94,129.65"/>
    </clipPath>
    <linearGradient id="linear-gradient1" x1="-231.75" y1="530.17" x2="-230.75" y2="530.17" gradientTransform="translate(61635.14 140990.77) scale(265.76 -265.76)" gradientUnits="userSpaceOnUse">
      <stop offset="0" stop-color="#7f5a28"/>
      <stop offset="0" stop-color="#7f5a28"/>
      <stop offset=".06" stop-color="#8c652e"/>
      <stop offset=".26" stop-color="#b18341"/>
      <stop offset=".42" stop-color="#c7964c"/>
      <stop offset=".52" stop-color="#d09d51"/>
      <stop offset=".77" stop-color="#a87b3d"/>
      <stop offset="1" stop-color="#815a29"/>
      <stop offset="1" stop-color="#815a29"/>
    </linearGradient>
    <clipPath id="clippath-2">
      <path class="st2" d="M46.16,159.04c18.99-49.44,66.92-84.52,123.03-84.52,29.86,0,57.39,9.93,79.47,26.67,6.59,4.98,12.69,10.57,18.22,16.69,4.22,4.67,10.49,7.08,16.74,6.33.11-.01.22-.03.33-.04,23.48-1.74,35.46-28.98,22.89-45.01-5.6-7.14-12.74-12.93-19.93-18.46-25.4-19.63-57.24-31.32-91.82-31.32-76.01,0-138.85,56.41-148.94,129.65"/>
    </clipPath>
    <linearGradient id="linear-gradient2" x1="-231.75" y1="530.17" x2="-230.75" y2="530.17" gradientTransform="translate(61635.14 140992.36) scale(265.76 -265.76)" gradientUnits="userSpaceOnUse">
      <stop offset="0" stop-color="#007b98"/>
      <stop offset="0" stop-color="#007b98"/>
      <stop offset=".66" stop-color="#063350"/>
      <stop offset="1" stop-color="#091430"/>
      <stop offset="1" stop-color="#091430"/>
    </linearGradient>
    <clipPath id="clippath-3">
      <path class="st2" d="M209.34,234.46c-29.86,0-57.39-9.93-79.47-26.67-6.58-4.98-12.69-10.57-18.22-16.69-4.22-4.67-10.49-7.08-16.74-6.33-.11.01-.22.03-.33.04-23.48,1.74-35.46,28.98-22.89,45.01,5.6,7.14,12.74,12.93,19.93,18.46,25.4,19.64,57.25,31.32,91.82,31.32,76.01,0,138.85-56.41,148.94-129.65-18.99,49.44-66.92,84.52-123.03,84.52"/>
    </clipPath>
    <linearGradient id="linear-gradient3" x1="-231.75" y1="530.17" x2="-230.75" y2="530.17" gradientTransform="translate(61655.59 141112.91) scale(265.76 -265.76)" gradientUnits="userSpaceOnUse">
      <stop offset="0" stop-color="#081531"/>
      <stop offset="0" stop-color="#081531"/>
      <stop offset="1" stop-color="#0b1c40"/>
      <stop offset="1" stop-color="#0b1c40"/>
    </linearGradient>
  </defs>
  <g class="st9">
    <rect class="st8" x="59.12" y="148.36" width="273.25" height="129.65"/>
  </g>
  <g class="st3">
    <rect class="st1" x="46.16" y="27.81" width="273.25" height="129.65"/>
  </g>
  <g class="st7">
    <rect class="st0" x="46.16" y="29.39" width="273.25" height="129.65"/>
  </g>
  <g class="st4">
    <rect class="st5" x="59.12" y="149.94" width="273.25" height="129.65"/>
  </g>
  <path class="st6" d="M212.55,99.83v1.76c-2.91.15-5.27.56-7.08,1.23-1.81.66-3.43,1.74-4.86,3.22-1.99,2.04-3.22,4.88-3.68,8.5-.31,2.71-.46,5.82-.46,9.34v56.45c0,4.24.2,7.58.61,10.03.41,2.45,1.07,4.42,1.99,5.9,1.33,2.04,3.04,3.56,5.13,4.56,2.09,1,4.88,1.6,8.35,1.8v1.76h-48.94v-1.76c2.96-.15,5.35-.57,7.16-1.26,1.81-.69,3.41-1.75,4.79-3.18,1.63-1.63,2.73-3.7,3.29-6.2.56-2.5.84-6.38.84-11.64v-56.45c0-5.26-.28-9.14-.84-11.64-.56-2.5-1.66-4.57-3.29-6.2-1.38-1.48-2.99-2.55-4.83-3.22-1.84-.66-4.21-1.07-7.12-1.23v-1.76h48.94Z"/>
</svg>