<?xml version="1.0" encoding="UTF-8"?>
<svg id="Layer_1" data-name="Layer 1" xmlns="http://www.w3.org/2000/svg" xmlns:xlink="http://www.w3.org/1999/xlink" viewBox="0 0 826.73 251.78">
  <defs>
    <style>
      .cls-1 {
        fill: url(#linear-gradient-13);
      }

      .cls-2 {
        clip-path: url(#clippath-6);
      }

      .cls-3 {
        clip-path: url(#clippath-7);
      }

      .cls-4 {
        clip-path: url(#clippath-4);
      }

      .cls-5 {
        fill: url(#linear-gradient-2);
      }

      .cls-6 {
        fill: url(#linear-gradient-10);
      }

      .cls-7 {
        fill: url(#linear-gradient-12);
      }

      .cls-8 {
        clip-path: url(#clippath-9);
      }

      .cls-9 {
        clip-path: url(#clippath-10);
      }

      .cls-10 {
        clip-path: url(#clippath-11);
      }

      .cls-11 {
        fill: none;
      }

      .cls-12 {
        fill: url(#linear-gradient-4);
      }

      .cls-13 {
        fill: url(#linear-gradient-3);
      }

      .cls-14 {
        clip-path: url(#clippath-1);
      }

      .cls-15 {
        fill: url(#linear-gradient-5);
      }

      .cls-16 {
        clip-path: url(#clippath-5);
      }

      .cls-17 {
        clip-path: url(#clippath-8);
      }

      .cls-18 {
        fill: url(#linear-gradient-8);
      }

      .cls-19 {
        clip-path: url(#clippath-3);
      }

      .cls-20 {
        clip-path: url(#clippath-12);
      }

      .cls-21 {
        fill: url(#linear-gradient-14);
      }

      .cls-22 {
        fill: url(#linear-gradient-7);
      }

      .cls-23 {
        fill: url(#linear-gradient-9);
      }

      .cls-24 {
        fill: url(#linear-gradient-11);
      }

      .cls-25 {
        fill: url(#linear-gradient-6);
      }

      .cls-26 {
        fill: #d6a251;
      }

      .cls-27 {
        clip-path: url(#clippath-2);
      }

      .cls-28 {
        clip-path: url(#clippath-13);
      }

      .cls-29 {
        fill: url(#linear-gradient);
      }

      .cls-30 {
        clip-path: url(#clippath);
      }
    </style>
    <clipPath id="clippath">
      <path class="cls-11" d="M163.18,205.07c-29.86,0-57.39-9.93-79.47-26.67-6.58-4.98-12.69-10.57-18.22-16.69-4.22-4.67-10.49-7.08-16.74-6.33-.11.01-.22.03-.33.04-23.48,1.74-35.46,28.98-22.89,45.01,5.6,7.14,12.74,12.93,19.93,18.46,25.4,19.64,57.25,31.32,91.82,31.32,76.01,0,138.85-56.41,148.94-129.65-18.99,49.44-66.92,84.52-123.03,84.52"/>
    </clipPath>
    <linearGradient id="linear-gradient" x1="-278.91" y1="502.37" x2="-277.91" y2="502.37" gradientTransform="translate(74141.92 133692.89) scale(265.76 -265.76)" gradientUnits="userSpaceOnUse">
      <stop offset="0" stop-color="#7f5a28"/>
      <stop offset="0" stop-color="#7f5a28"/>
      <stop offset=".06" stop-color="#8c652e"/>
      <stop offset=".26" stop-color="#b18341"/>
      <stop offset=".42" stop-color="#c7964c"/>
      <stop offset=".52" stop-color="#d09d51"/>
      <stop offset=".77" stop-color="#a87b3d"/>
      <stop offset="1" stop-color="#815a29"/>
      <stop offset="1" stop-color="#815a29"/>
    </linearGradient>
    <clipPath id="clippath-1">
      <path class="cls-11" d="M0,129.65C18.99,80.22,66.92,45.13,123.03,45.13c29.86,0,57.39,9.93,79.47,26.67,6.59,4.98,12.69,10.57,18.22,16.69,4.22,4.67,10.49,7.08,16.74,6.33.11-.01.22-.03.33-.04,23.48-1.74,35.46-28.98,22.89-45.01-5.6-7.14-12.74-12.93-19.93-18.46C215.35,11.68,183.51,0,148.94,0,72.93,0,10.09,56.41,0,129.65"/>
    </clipPath>
    <linearGradient id="linear-gradient-2" x1="-278.91" y1="502.37" x2="-277.91" y2="502.37" gradientTransform="translate(74121.47 133572.34) scale(265.76 -265.76)" gradientUnits="userSpaceOnUse">
      <stop offset="0" stop-color="#7f5a28"/>
      <stop offset="0" stop-color="#7f5a28"/>
      <stop offset=".06" stop-color="#8c652e"/>
      <stop offset=".26" stop-color="#b18341"/>
      <stop offset=".42" stop-color="#c7964c"/>
      <stop offset=".52" stop-color="#d09d51"/>
      <stop offset=".77" stop-color="#a87b3d"/>
      <stop offset="1" stop-color="#815a29"/>
      <stop offset="1" stop-color="#815a29"/>
    </linearGradient>
    <clipPath id="clippath-2">
      <path class="cls-11" d="M0,131.23C18.99,81.8,66.92,46.72,123.03,46.72c29.86,0,57.39,9.93,79.47,26.67,6.59,4.98,12.69,10.57,18.22,16.69,4.22,4.67,10.49,7.08,16.74,6.33.11-.01.22-.03.33-.04,23.48-1.74,35.46-28.98,22.89-45.01-5.6-7.14-12.74-12.93-19.93-18.46C215.35,13.26,183.51,1.58,148.94,1.58,72.93,1.58,10.09,57.99,0,131.23"/>
    </clipPath>
    <linearGradient id="linear-gradient-3" x1="-278.91" y1="502.37" x2="-277.91" y2="502.37" gradientTransform="translate(74121.47 133573.92) scale(265.76 -265.76)" gradientUnits="userSpaceOnUse">
      <stop offset="0" stop-color="#007b98"/>
      <stop offset="0" stop-color="#007b98"/>
      <stop offset=".66" stop-color="#063350"/>
      <stop offset="1" stop-color="#091430"/>
      <stop offset="1" stop-color="#091430"/>
    </linearGradient>
    <clipPath id="clippath-3">
      <path class="cls-11" d="M163.18,206.65c-29.86,0-57.39-9.93-79.47-26.67-6.58-4.98-12.69-10.57-18.22-16.69-4.22-4.67-10.49-7.08-16.74-6.33-.11.01-.22.03-.33.04-23.48,1.74-35.46,28.98-22.89,45.01,5.6,7.14,12.74,12.93,19.93,18.46,25.4,19.64,57.25,31.32,91.82,31.32,76.01,0,138.85-56.41,148.94-129.65-18.99,49.44-66.92,84.52-123.03,84.52"/>
    </clipPath>
    <linearGradient id="linear-gradient-4" x1="-278.91" y1="502.37" x2="-277.91" y2="502.37" gradientTransform="translate(74141.92 133694.47) scale(265.76 -265.76)" gradientUnits="userSpaceOnUse">
      <stop offset="0" stop-color="#081531"/>
      <stop offset="0" stop-color="#081531"/>
      <stop offset="1" stop-color="#0b1c40"/>
      <stop offset="1" stop-color="#0b1c40"/>
    </linearGradient>
    <clipPath id="clippath-4">
      <path class="cls-11" d="M313.58,86.57v.94c1.55.08,2.82.3,3.8.65.98.36,1.84.93,2.57,1.72.87.87,1.46,1.98,1.76,3.31.3,1.34.45,3.41.45,6.21v30.12c0,2.81-.15,4.88-.45,6.21-.3,1.33-.89,2.44-1.76,3.31-.74.76-1.59,1.33-2.56,1.69-.97.37-2.24.59-3.82.68v.94h26.12v-.94c-1.85-.11-3.34-.43-4.46-.96-1.12-.53-2.03-1.34-2.74-2.43-.49-.79-.84-1.84-1.06-3.15-.22-1.31-.33-3.09-.33-5.35v-30.12c0-1.88.08-3.54.25-4.99.25-1.93.9-3.45,1.96-4.54.76-.79,1.63-1.36,2.6-1.72.97-.35,2.23-.57,3.78-.65v-.94h-26.12Z"/>
    </clipPath>
    <linearGradient id="linear-gradient-5" x1="-278.07" y1="502.79" x2="-277.07" y2="502.79" gradientTransform="translate(143006.17 258122.13) scale(513.15 -513.15)" xlink:href="#linear-gradient"/>
    <clipPath id="clippath-5">
      <path class="cls-11" d="M384.04,86.57v.94c1.55.08,2.81.3,3.78.65.97.36,1.83.93,2.6,1.72.84.87,1.42,1.98,1.74,3.31.31,1.34.47,3.41.47,6.21v29.51l-33.19-42.34h-15.74v.94c1.58.08,2.85.3,3.82.65.97.36,1.82.93,2.56,1.72.85.87,1.42,1.98,1.74,3.33.31,1.35.47,3.4.47,6.15v30.16c0,2.78-.16,4.84-.47,6.19-.31,1.35-.89,2.46-1.74,3.33-.76.79-1.63,1.36-2.6,1.72-.97.35-2.23.57-3.78.65v.94h18.84v-.94c-1.55-.08-2.81-.3-3.78-.65-.97-.36-1.83-.93-2.6-1.72-.85-.87-1.42-1.98-1.74-3.31-.31-1.33-.47-3.41-.47-6.21v-35.56l38.5,48.39h1.84v-43c0-2.75.16-4.8.47-6.15.31-1.35.89-2.46,1.74-3.33,1.53-1.58,3.65-2.37,6.38-2.37v-.94h-18.84Z"/>
    </clipPath>
    <linearGradient id="linear-gradient-6" x1="-278.07" y1="502.79" x2="-277.07" y2="502.79" gradientTransform="translate(143006.17 258122.13) scale(513.15 -513.15)" xlink:href="#linear-gradient"/>
    <clipPath id="clippath-6">
      <path class="cls-11" d="M416.13,89.15c-1.64,1.5-2.91,3.3-3.82,5.4-.91,2.1-1.37,4.28-1.37,6.54,0,3.68,1.17,6.8,3.52,9.36.85.93,1.95,1.84,3.33,2.74,1.38.9,3.36,2,5.95,3.31,2.94,1.5,5.13,2.74,6.56,3.72,1.43.98,2.54,2,3.33,3.07.76,1.04,1.37,2.27,1.82,3.72.45,1.44.67,2.86.67,4.25,0,3.22-1.02,5.87-3.07,7.97-2.04,2.1-4.63,3.15-7.77,3.15-4.49,0-8.23-2.28-11.2-6.85-1.58-2.47-2.94-5.86-4.09-10.15l-.94-.04-.12,16.88h.94c.49-1.31,1.39-1.96,2.7-1.96.41,0,.78.06,1.1.16.33.11,1.33.53,3.02,1.27,3.24,1.39,6.62,2.09,10.14,2.09,3.84,0,7.18-.86,10.01-2.59,2.83-1.72,4.96-4.18,6.38-7.36,1.01-2.28,1.51-4.68,1.51-7.18,0-3.77-1.12-7.07-3.35-9.9-1.96-2.54-5.16-4.85-9.59-6.96l-5.75-2.78c-5.85-2.78-8.78-6.45-8.78-11.01,0-1.15.21-2.29.63-3.44.42-1.15,1-2.14,1.73-2.99,1.77-2.07,4.18-3.11,7.22-3.11,2.09,0,3.94.51,5.55,1.53,1.6,1.02,3.07,2.6,4.41,4.72.73,1.17,1.37,2.45,1.9,3.82.53,1.38,1.16,3.36,1.9,5.95h.94l-.29-16.23h-.94c-.33,1.39-.97,2.09-1.92,2.09-.38,0-.82-.07-1.31-.22-.49-.15-1.42-.5-2.78-1.04-1.83-.76-3.28-1.27-4.37-1.53-1.09-.26-2.28-.39-3.56-.39-3.95,0-7.37,1.34-10.26,4.01"/>
    </clipPath>
    <linearGradient id="linear-gradient-7" x1="-278.07" y1="502.79" x2="-277.07" y2="502.79" gradientTransform="translate(143006.17 258122.13) scale(513.15 -513.15)" xlink:href="#linear-gradient"/>
    <clipPath id="clippath-7">
      <path class="cls-11" d="M450.21,86.57v.94c1.55.08,2.82.3,3.8.65.98.36,1.84.93,2.57,1.72.87.87,1.46,1.98,1.76,3.31.3,1.34.45,3.41.45,6.21v30.12c0,2.81-.15,4.88-.45,6.21-.3,1.33-.88,2.44-1.76,3.31-.74.76-1.59,1.33-2.55,1.69-.97.37-2.24.59-3.82.68v.94h26.12v-.94c-1.85-.11-3.34-.43-4.45-.96-1.12-.53-2.03-1.34-2.74-2.43-.49-.79-.85-1.84-1.06-3.15-.22-1.31-.33-3.09-.33-5.35v-30.12c0-1.88.08-3.54.25-4.99.24-1.93.9-3.45,1.96-4.54.76-.79,1.63-1.36,2.6-1.72.97-.35,2.23-.57,3.78-.65v-.94h-26.12Z"/>
    </clipPath>
    <linearGradient id="linear-gradient-8" x1="-278.07" y1="502.79" x2="-277.07" y2="502.79" gradientTransform="translate(143006.17 258122.13) scale(513.15 -513.15)" xlink:href="#linear-gradient"/>
    <clipPath id="clippath-8">
      <path class="cls-11" d="M501.18,86.94c-3.38,1.2-6.36,2.9-8.95,5.11-3.16,2.73-5.61,6.19-7.36,10.38-1.74,4.2-2.62,8.73-2.62,13.61,0,3.54.48,6.89,1.45,10.05.97,3.16,2.35,5.89,4.15,8.17,2.4,3.05,5.52,5.4,9.38,7.03,3.86,1.64,8.18,2.45,12.98,2.45,3.49,0,6.8-.44,9.93-1.31,3.13-.87,5.89-2.13,8.26-3.76.93-.63,1.69-.94,2.29-.94.49,0,1.25.19,2.29.57l-.08-.94c-.11-2.07-.16-3.6-.16-4.58,0-3.57.26-5.95.78-7.15.46-1.09,1.18-1.86,2.15-2.31.97-.45,2.65-.78,5.05-1v-.94h-26.08v.94c3.35,0,5.76.6,7.21,1.8,1.46,1.2,2.19,3.15,2.19,5.84,0,2.92-.8,5.44-2.41,7.56-1.17,1.53-2.67,2.73-4.49,3.6-1.83.87-3.77,1.31-5.85,1.31-5.26,0-9.71-2.45-13.37-7.36-1.88-2.54-3.31-5.46-4.29-8.77-.98-3.31-1.47-6.83-1.47-10.57,0-7.82,2.04-14.77,6.13-20.84,2.02-2.97,4.19-5.12,6.52-6.44,2.33-1.32,5.12-1.98,8.36-1.98,4.17,0,7.73,1.48,10.67,4.43,2.94,2.96,5.35,7.46,7.23,13.51l.94-.08-.49-17.78h-1.06c-.57,1.77-1.4,2.66-2.49,2.66-.49,0-1.04-.12-1.64-.37l-2.41-1.11c-2.1-.93-4.08-1.59-5.95-2-1.87-.41-3.89-.61-6.07-.61-3.76,0-7.33.6-10.71,1.8"/>
    </clipPath>
    <linearGradient id="linear-gradient-9" x1="-278.07" y1="502.79" x2="-277.07" y2="502.79" gradientTransform="translate(143006.17 258122.13) scale(513.15 -513.15)" xlink:href="#linear-gradient"/>
    <clipPath id="clippath-9">
      <path class="cls-11" d="M581.17,86.57v.94c1.58.08,2.85.3,3.82.65.97.36,1.83.93,2.6,1.72.84.87,1.42,1.98,1.74,3.31.31,1.34.47,3.41.47,6.21v13.12h-29.02v-13.12c0-2.78.16-4.84.47-6.19.31-1.35.89-2.46,1.74-3.33.76-.79,1.63-1.36,2.6-1.72.97-.35,2.23-.57,3.78-.65v-.94h-26.12v.94c1.55.08,2.82.3,3.8.65.98.36,1.84.93,2.57,1.72.87.87,1.46,1.98,1.76,3.31.3,1.34.45,3.41.45,6.21v30.12c0,2.81-.15,4.88-.45,6.21-.3,1.33-.88,2.44-1.76,3.31-.74.76-1.59,1.33-2.55,1.69-.97.37-2.24.59-3.82.68v.94h26.12v-.94c-1.58-.08-2.85-.31-3.82-.68-.97-.37-1.82-.93-2.55-1.69-.85-.87-1.43-1.98-1.74-3.33-.31-1.35-.47-3.41-.47-6.19v-15.08h29.02v15.08c0,2.81-.16,4.88-.47,6.21-.31,1.33-.89,2.44-1.74,3.31-.76.76-1.63,1.33-2.6,1.69-.97.37-2.24.59-3.82.68v.94h26.12v-.94c-1.55-.08-2.82-.31-3.78-.68-.97-.37-1.83-.93-2.6-1.69-.84-.9-1.42-2.02-1.74-3.35-.31-1.33-.47-3.39-.47-6.17v-30.12c0-2.78.16-4.84.47-6.19.31-1.35.89-2.46,1.74-3.33.76-.79,1.63-1.36,2.6-1.72.97-.35,2.23-.57,3.78-.65v-.94h-26.12Z"/>
    </clipPath>
    <linearGradient id="linear-gradient-10" x1="-278.07" y1="502.79" x2="-277.07" y2="502.79" gradientTransform="translate(143006.17 258122.13) scale(513.15 -513.15)" xlink:href="#linear-gradient"/>
    <clipPath id="clippath-10">
      <path class="cls-11" d="M610.39,86.57l-.74,15.08.94.08c.65-3.27,1.59-5.86,2.82-7.77,1.34-2.07,3.03-3.53,5.09-4.37,2.06-.84,5.18-1.38,9.38-1.59,1.96-.11,3.8-.16,5.52-.16v41.69c0,2.81-.16,4.88-.47,6.21-.31,1.33-.89,2.44-1.74,3.31-.76.79-1.63,1.36-2.6,1.72-.96.35-2.24.57-3.82.65v.94h26.12v-.94c-1.55-.08-2.81-.3-3.78-.65-.97-.36-1.83-.93-2.59-1.72-.85-.87-1.42-1.98-1.74-3.33-.31-1.35-.47-3.41-.47-6.19v-41.69c6.05,0,10.34.37,12.87,1.1,3,.85,5.28,2.24,6.85,4.19,1.57,1.95,2.72,4.82,3.45,8.6l.94-.08-.73-15.08h-55.3Z"/>
    </clipPath>
    <linearGradient id="linear-gradient-11" x1="-278.07" y1="502.79" x2="-277.07" y2="502.79" gradientTransform="translate(143006.17 258122.13) scale(513.15 -513.15)" xlink:href="#linear-gradient"/>
    <clipPath id="clippath-11">
      <path class="cls-11" d="M668.8,86.57v.94c2.04.11,3.64.48,4.78,1.1,2.07,1.17,3.24,2.96,3.51,5.35.19,1.88.29,3.69.29,5.44v30.12c0,2.59-.16,4.62-.49,6.09-.33,1.47-.87,2.63-1.64,3.47-.65.71-1.57,1.27-2.74,1.7-1.17.42-2.41.63-3.72.63v.94h26.12v-.94c-1.55-.08-2.83-.31-3.82-.68-1-.37-1.86-.95-2.59-1.74-.85-.9-1.42-2.01-1.72-3.33-.3-1.32-.45-3.37-.45-6.15v-16.31c2.51,0,4.55.16,6.15.47,1.59.32,2.94.81,4.03,1.49,1.47.93,2.57,2.15,3.29,3.66.72,1.51,1.23,3.66,1.53,6.44h.98l.25-24.77-.94-.04c-.16,2.04-.49,3.7-.98,4.97-.49,1.27-1.21,2.36-2.16,3.29-2.18,2.15-5.68,3.23-10.5,3.23h-1.64v-24.11h6.33c3.05,0,5.45.15,7.19.45,1.74.3,3.28.83,4.62,1.59,2.32,1.31,4.11,3.15,5.4,5.52.57,1.04,1.2,2.59,1.88,4.66l.94-.2-1.18-13.28h-42.71Z"/>
    </clipPath>
    <linearGradient id="linear-gradient-12" x1="-278.07" y1="502.79" x2="-277.07" y2="502.79" gradientTransform="translate(143006.17 258122.13) scale(513.15 -513.15)" xlink:href="#linear-gradient"/>
    <clipPath id="clippath-12">
      <path class="cls-11" d="M755.08,86.57v.94c1.55.08,2.81.3,3.78.65.97.36,1.83.93,2.6,1.72.84.87,1.42,1.98,1.74,3.31.31,1.34.47,3.41.47,6.21v22.85c0,4.17-.06,6.81-.16,7.93-.16,1.72-.5,3.13-1,4.25-.5,1.12-1.29,2.15-2.35,3.11-1.72,1.53-3.86,2.72-6.44,3.58-2.57.86-5.28,1.29-8.11,1.29s-5.33-.48-7.25-1.45c-1.92-.97-3.54-2.53-4.84-4.68-.87-1.42-1.45-2.96-1.74-4.64-.29-1.68-.43-4.39-.43-8.15v-23.13c0-3.33.14-5.67.43-7.03.29-1.36.88-2.51,1.78-3.43.73-.79,1.59-1.36,2.57-1.72.98-.35,2.25-.57,3.8-.65v-.94h-26.12v.94c1.58.08,2.85.3,3.82.65.97.36,1.82.93,2.55,1.72.87.87,1.46,1.98,1.76,3.31.3,1.34.45,3.41.45,6.21v24.81c0,3.13.08,5.3.24,6.5.46,3.38,1.88,6.1,4.25,8.18,3.65,3.24,9.33,4.86,17.04,4.86s13.07-1.72,17.04-5.15c1.74-1.5,2.91-3.15,3.49-4.96.58-1.81.88-4.62.88-8.44v-25.79c0-2.78.16-4.84.47-6.19.31-1.35.89-2.46,1.74-3.33.76-.79,1.63-1.36,2.6-1.72.97-.35,2.23-.57,3.78-.65v-.94h-18.84Z"/>
    </clipPath>
    <linearGradient id="linear-gradient-13" x1="-278.07" y1="502.79" x2="-277.07" y2="502.79" gradientTransform="translate(143006.17 258122.13) scale(513.15 -513.15)" xlink:href="#linear-gradient"/>
    <clipPath id="clippath-13">
      <path class="cls-11" d="M777.4,86.57v.94c1.47.05,2.68.24,3.62.57.94.33,1.79.84,2.55,1.55.93.87,1.56,2,1.9,3.37.34,1.38.51,3.51.51,6.4v30.12c0,2.78-.16,4.84-.47,6.19-.31,1.35-.89,2.46-1.74,3.33-1.5,1.55-3.62,2.33-6.38,2.33v.98h48.8l.53-16.76-.98-.08c-.52,2.53-1.08,4.58-1.7,6.13-.61,1.55-1.4,2.94-2.35,4.17-1.42,1.8-3.24,3.13-5.46,3.98-2.22.86-4.95,1.29-8.19,1.29s-5.6-.45-7.48-1.37c-1.88-.91-3.3-2.35-4.25-4.31-.55-1.12-.91-2.56-1.1-4.33-.19-1.77-.28-4.47-.28-8.09v-23.58c0-2.86.16-4.97.49-6.34.33-1.36.95-2.49,1.88-3.39.74-.71,1.58-1.23,2.53-1.55.95-.33,2.18-.53,3.68-.61v-.94h-26.12Z"/>
    </clipPath>
    <linearGradient id="linear-gradient-14" x1="-278.07" y1="502.79" x2="-277.07" y2="502.79" gradientTransform="translate(143006.17 258122.13) scale(513.15 -513.15)" xlink:href="#linear-gradient"/>
  </defs>
  <g>
    <g class="cls-30">
      <rect class="cls-29" x="12.96" y="120.55" width="273.25" height="129.65"/>
    </g>
    <g class="cls-14">
      <rect class="cls-5" width="273.25" height="129.65"/>
    </g>
    <g class="cls-27">
      <rect class="cls-13" y="1.58" width="273.25" height="129.65"/>
    </g>
    <g class="cls-19">
      <rect class="cls-12" x="12.96" y="122.13" width="273.25" height="129.65"/>
    </g>
    <path class="cls-26" d="M166.39,72.02v1.76c-2.91.15-5.27.56-7.08,1.23-1.81.66-3.43,1.74-4.86,3.22-1.99,2.04-3.22,4.88-3.68,8.5-.31,2.71-.46,5.82-.46,9.34v56.45c0,4.24.2,7.58.61,10.03.41,2.45,1.07,4.42,1.99,5.9,1.33,2.04,3.04,3.56,5.13,4.56,2.09,1,4.88,1.6,8.35,1.8v1.76h-48.94v-1.76c2.96-.15,5.35-.57,7.16-1.26,1.81-.69,3.41-1.75,4.79-3.18,1.63-1.63,2.73-3.7,3.29-6.2.56-2.5.84-6.38.84-11.64v-56.45c0-5.26-.28-9.14-.84-11.64-.56-2.5-1.66-4.57-3.29-6.2-1.38-1.48-2.99-2.55-4.83-3.22-1.84-.66-4.21-1.07-7.12-1.23v-1.76h48.94Z"/>
  </g>
  <g>
    <path class="cls-26" d="M339.7,86.57v.94c-1.55.08-2.81.3-3.78.65-.97.36-1.83.93-2.6,1.72-1.06,1.09-1.72,2.6-1.96,4.54-.16,1.45-.24,3.11-.24,4.99v30.12c0,2.26.11,4.05.33,5.35.22,1.31.57,2.36,1.06,3.15.71,1.09,1.62,1.9,2.74,2.43,1.12.53,2.6.85,4.46.96v.94h-26.12v-.94c1.58-.08,2.86-.31,3.82-.67.97-.37,1.82-.93,2.55-1.7.87-.87,1.46-1.98,1.76-3.31.3-1.33.45-3.41.45-6.21v-30.12c0-2.81-.15-4.88-.45-6.21-.3-1.34-.88-2.44-1.76-3.31-.74-.79-1.59-1.36-2.57-1.72-.98-.35-2.25-.57-3.8-.65v-.94h26.12Z"/>
    <path class="cls-26" d="M353.96,93.97v35.56c0,2.81.16,4.88.47,6.21.31,1.33.89,2.44,1.74,3.31.76.79,1.63,1.36,2.6,1.72.97.35,2.23.57,3.78.65v.94h-18.84v-.94c1.55-.08,2.81-.3,3.78-.65.97-.36,1.83-.93,2.6-1.72.85-.87,1.42-1.98,1.74-3.33.31-1.35.47-3.41.47-6.19v-30.16c0-2.75-.16-4.8-.47-6.15-.31-1.35-.89-2.46-1.74-3.33-.74-.79-1.59-1.36-2.55-1.72-.97-.35-2.24-.57-3.82-.65v-.94h15.74l33.19,42.34v-29.51c0-2.81-.16-4.88-.47-6.21-.31-1.34-.89-2.44-1.74-3.31-.76-.79-1.63-1.36-2.6-1.72-.97-.35-2.23-.57-3.78-.65v-.94h18.84v.94c-2.73,0-4.85.79-6.38,2.37-.84.87-1.42,1.98-1.74,3.33-.31,1.35-.47,3.4-.47,6.15v43h-1.84l-38.5-48.39Z"/>
    <path class="cls-26" d="M408.93,142.2l.12-16.88.94.04c1.14,4.29,2.51,7.68,4.09,10.15,2.97,4.57,6.7,6.85,11.2,6.85,3.13,0,5.72-1.05,7.76-3.15,2.04-2.1,3.07-4.76,3.07-7.97,0-1.39-.23-2.81-.67-4.25-.45-1.44-1.06-2.68-1.82-3.72-.79-1.06-1.9-2.09-3.33-3.07-1.43-.98-3.62-2.22-6.56-3.72-2.59-1.31-4.57-2.41-5.95-3.31-1.38-.9-2.49-1.81-3.33-2.74-2.34-2.56-3.52-5.68-3.52-9.36,0-2.26.46-4.44,1.37-6.54.91-2.1,2.19-3.9,3.82-5.39,2.89-2.67,6.31-4.01,10.26-4.01,1.28,0,2.47.13,3.56.39s2.55.77,4.37,1.53c1.36.55,2.29.89,2.78,1.04s.93.22,1.31.22c.95,0,1.59-.69,1.92-2.08h.94l.29,16.23h-.94c-.74-2.59-1.37-4.57-1.9-5.95-.53-1.38-1.16-2.65-1.9-3.82-1.33-2.13-2.8-3.7-4.41-4.72-1.6-1.02-3.45-1.53-5.55-1.53-3.05,0-5.45,1.04-7.22,3.11-.73.85-1.31,1.84-1.73,2.99-.42,1.15-.63,2.29-.63,3.44,0,4.56,2.92,8.22,8.77,11.01l5.75,2.78c4.43,2.1,7.63,4.42,9.59,6.96,2.23,2.84,3.35,6.14,3.35,9.9,0,2.5-.5,4.89-1.51,7.18-1.42,3.18-3.54,5.63-6.38,7.36-2.83,1.73-6.17,2.59-10.01,2.59-3.51,0-6.89-.7-10.14-2.08-1.69-.74-2.7-1.16-3.02-1.27-.33-.11-.7-.16-1.1-.16-1.31,0-2.21.65-2.7,1.96h-.94Z"/>
    <path class="cls-26" d="M476.33,86.57v.94c-1.55.08-2.81.3-3.78.65-.97.36-1.83.93-2.6,1.72-1.06,1.09-1.72,2.6-1.96,4.54-.16,1.45-.24,3.11-.24,4.99v30.12c0,2.26.11,4.05.33,5.35.22,1.31.57,2.36,1.06,3.15.71,1.09,1.62,1.9,2.74,2.43,1.12.53,2.6.85,4.46.96v.94h-26.12v-.94c1.58-.08,2.86-.31,3.82-.67.97-.37,1.82-.93,2.55-1.7.87-.87,1.46-1.98,1.76-3.31.3-1.33.45-3.41.45-6.21v-30.12c0-2.81-.15-4.88-.45-6.21-.3-1.34-.89-2.44-1.76-3.31-.74-.79-1.59-1.36-2.57-1.72-.98-.35-2.25-.57-3.8-.65v-.94h26.12Z"/>
    <path class="cls-26" d="M531.51,86.57l.49,17.78-.94.08c-1.88-6.05-4.29-10.55-7.24-13.51-2.94-2.96-6.5-4.43-10.67-4.43-3.24,0-6.03.66-8.36,1.98-2.33,1.32-4.5,3.47-6.52,6.44-4.09,6.08-6.13,13.02-6.13,20.84,0,3.74.49,7.26,1.47,10.57.98,3.31,2.41,6.23,4.29,8.77,3.65,4.9,8.11,7.36,13.36,7.36,2.07,0,4.02-.43,5.85-1.31,1.83-.87,3.32-2.07,4.5-3.6,1.61-2.13,2.41-4.65,2.41-7.56,0-2.7-.73-4.65-2.19-5.84-1.46-1.2-3.86-1.8-7.21-1.8v-.94h26.08v.94c-2.4.22-4.08.55-5.05,1-.97.45-1.68,1.22-2.15,2.31-.52,1.2-.78,3.58-.78,7.15,0,.98.05,2.51.16,4.58l.08.94c-1.04-.38-1.8-.57-2.29-.57-.6,0-1.36.32-2.29.94-2.37,1.64-5.12,2.89-8.26,3.76-3.13.87-6.44,1.31-9.93,1.31-4.8,0-9.12-.82-12.98-2.45-3.86-1.63-6.98-3.98-9.38-7.03-1.8-2.29-3.18-5.01-4.15-8.18-.97-3.16-1.45-6.51-1.45-10.05,0-4.88.87-9.41,2.62-13.61,1.74-4.2,4.2-7.66,7.36-10.38,2.59-2.21,5.57-3.91,8.95-5.11,3.38-1.2,6.95-1.8,10.71-1.8,2.18,0,4.2.21,6.07.61,1.87.41,3.85,1.08,5.95,2l2.41,1.1c.6.24,1.14.37,1.63.37,1.09,0,1.92-.89,2.49-2.66h1.06Z"/>
    <path class="cls-26" d="M560.77,112.53h29.02v-13.12c0-2.81-.16-4.88-.47-6.21-.31-1.34-.89-2.44-1.74-3.31-.76-.79-1.63-1.36-2.6-1.72-.97-.35-2.24-.57-3.82-.65v-.94h26.12v.94c-1.55.08-2.82.3-3.78.65-.97.35-1.83.93-2.6,1.72-.85.87-1.42,1.98-1.74,3.33-.31,1.35-.47,3.41-.47,6.19v30.12c0,2.78.16,4.84.47,6.17.31,1.34.89,2.45,1.74,3.35.76.76,1.63,1.33,2.6,1.69.97.37,2.23.59,3.78.68v.94h-26.12v-.94c1.58-.08,2.86-.31,3.82-.68.97-.37,1.83-.93,2.6-1.69.84-.87,1.42-1.98,1.74-3.31.31-1.33.47-3.41.47-6.21v-15.08h-29.02v15.08c0,2.78.16,4.84.47,6.19.31,1.35.89,2.46,1.74,3.33.74.76,1.59,1.33,2.56,1.69.97.37,2.24.59,3.82.68v.94h-26.12v-.94c1.58-.08,2.85-.31,3.82-.68.97-.37,1.82-.93,2.55-1.69.87-.87,1.46-1.98,1.76-3.31.3-1.33.45-3.41.45-6.21v-30.12c0-2.81-.15-4.88-.45-6.21-.3-1.34-.89-2.44-1.76-3.31-.74-.79-1.59-1.36-2.57-1.72-.98-.35-2.25-.57-3.8-.65v-.94h26.12v.94c-1.55.08-2.81.3-3.78.65-.97.35-1.83.93-2.6,1.72-.84.87-1.42,1.98-1.74,3.33-.31,1.35-.47,3.41-.47,6.19v13.12Z"/>
    <path class="cls-26" d="M633.4,87.84c-1.72,0-3.56.05-5.52.16-4.2.22-7.32.75-9.38,1.59-2.06.84-3.75,2.3-5.09,4.37-1.23,1.91-2.17,4.49-2.82,7.76l-.94-.08.73-15.08h55.3l.74,15.08-.94.08c-.74-3.79-1.89-6.65-3.45-8.6-1.57-1.95-3.85-3.34-6.85-4.19-2.53-.74-6.82-1.1-12.87-1.1v41.69c0,2.78.16,4.84.47,6.19.31,1.35.89,2.46,1.74,3.33.76.79,1.63,1.36,2.6,1.72.97.35,2.23.57,3.78.65v.94h-26.12v-.94c1.58-.08,2.86-.3,3.82-.65.97-.35,1.83-.93,2.6-1.72.84-.87,1.42-1.98,1.74-3.31.31-1.33.47-3.41.47-6.21v-41.69Z"/>
    <path class="cls-26" d="M686.33,113.22v16.31c0,2.78.15,4.83.45,6.15.3,1.32.87,2.43,1.72,3.33.73.79,1.6,1.37,2.6,1.74.99.37,2.27.59,3.82.68v.94h-26.12v-.94c1.31,0,2.55-.21,3.72-.63,1.17-.42,2.09-.99,2.74-1.7.76-.84,1.31-2,1.64-3.47.33-1.47.49-3.5.49-6.09v-30.12c0-1.74-.1-3.56-.29-5.44-.27-2.4-1.44-4.18-3.51-5.35-1.15-.63-2.74-.99-4.78-1.1v-.94h42.71l1.19,13.28-.94.2c-.68-2.07-1.31-3.62-1.88-4.66-1.28-2.37-3.08-4.21-5.4-5.52-1.34-.76-2.88-1.29-4.62-1.59-1.74-.3-4.14-.45-7.19-.45h-6.33v24.11h1.63c4.82,0,8.32-1.08,10.5-3.23.95-.93,1.68-2.02,2.17-3.29.49-1.27.82-2.92.98-4.97l.94.04-.24,24.77h-.98c-.3-2.78-.81-4.93-1.53-6.44-.72-1.51-1.82-2.73-3.29-3.66-1.09-.68-2.43-1.18-4.03-1.49-1.59-.31-3.64-.47-6.15-.47"/>
    <path class="cls-26" d="M739.92,86.57v.94c-1.55.08-2.82.3-3.8.65-.98.36-1.84.93-2.57,1.72-.9.93-1.49,2.07-1.78,3.43-.29,1.36-.43,3.71-.43,7.03v23.13c0,3.76.14,6.48.43,8.15.28,1.67.86,3.22,1.74,4.64,1.31,2.15,2.92,3.71,4.84,4.68,1.92.97,4.34,1.45,7.25,1.45s5.54-.43,8.11-1.29c2.58-.86,4.72-2.05,6.44-3.58,1.06-.95,1.85-1.99,2.35-3.11.51-1.12.84-2.53,1-4.25.11-1.12.16-3.76.16-7.93v-22.85c0-2.81-.16-4.88-.47-6.21-.31-1.34-.89-2.44-1.74-3.31-.76-.79-1.63-1.36-2.6-1.72-.97-.35-2.23-.57-3.78-.65v-.94h18.84v.94c-1.55.08-2.82.3-3.78.65-.97.36-1.83.93-2.59,1.72-.85.87-1.42,1.98-1.74,3.33-.31,1.35-.47,3.41-.47,6.19v25.79c0,3.82-.29,6.63-.88,8.44-.59,1.81-1.75,3.47-3.49,4.96-3.98,3.43-9.66,5.15-17.04,5.15s-13.39-1.62-17.04-4.86c-2.37-2.07-3.79-4.79-4.25-8.18-.16-1.2-.25-3.36-.25-6.5v-24.81c0-2.81-.15-4.88-.45-6.21-.3-1.34-.89-2.44-1.76-3.31-.74-.79-1.59-1.36-2.55-1.72-.97-.35-2.24-.57-3.82-.65v-.94h26.12Z"/>
    <path class="cls-26" d="M777.4,142.36v-.98c2.75,0,4.88-.78,6.38-2.33.84-.87,1.42-1.98,1.74-3.33.31-1.35.47-3.41.47-6.19v-30.12c0-2.89-.17-5.02-.51-6.4-.34-1.38-.97-2.5-1.9-3.37-.76-.71-1.62-1.23-2.56-1.55-.94-.33-2.15-.52-3.62-.57v-.94h26.12v.94c-1.5.08-2.73.29-3.68.61-.96.33-1.8.85-2.53,1.55-.93.9-1.55,2.03-1.88,3.39-.33,1.36-.49,3.48-.49,6.34v23.58c0,3.62.09,6.32.29,8.09.19,1.77.56,3.22,1.1,4.33.95,1.96,2.37,3.4,4.25,4.31,1.88.91,4.37,1.37,7.48,1.37s5.97-.43,8.2-1.29c2.22-.86,4.04-2.19,5.46-3.99.95-1.23,1.74-2.62,2.35-4.17.61-1.55,1.18-3.6,1.7-6.13l.98.08-.53,16.76h-48.8Z"/>
    <g class="cls-4">
      <rect class="cls-15" x="313.58" y="86.57" width="26.12" height="55.79"/>
    </g>
    <g class="cls-16">
      <rect class="cls-25" x="343.7" y="86.57" width="59.18" height="55.79"/>
    </g>
    <g class="cls-2">
      <rect class="cls-22" x="408.93" y="85.14" width="35.8" height="58.61"/>
    </g>
    <g class="cls-3">
      <rect class="cls-18" x="450.21" y="86.57" width="26.12" height="55.79"/>
    </g>
    <g class="cls-17">
      <rect class="cls-23" x="482.26" y="85.14" width="58.45" height="58.61"/>
    </g>
    <g class="cls-8">
      <rect class="cls-6" x="543.24" y="86.57" width="64.05" height="55.79"/>
    </g>
    <g class="cls-9">
      <rect class="cls-24" x="609.66" y="86.57" width="56.77" height="55.79"/>
    </g>
    <g class="cls-10">
      <rect class="cls-7" x="668.8" y="86.57" width="43.9" height="55.79"/>
    </g>
    <g class="cls-20">
      <rect class="cls-1" x="713.8" y="86.57" width="60.12" height="57.18"/>
    </g>
    <g class="cls-28">
      <rect class="cls-21" x="777.4" y="86.57" width="49.33" height="55.79"/>
    </g>
    <g>
      <rect class="cls-26" x="818.03" y="186.44" width="5.55" height="1.87"/>
      <rect class="cls-26" x="339.94" y="186.44" width="5.55" height="1.87"/>
      <path class="cls-26" d="M351.87,175.77h7.83v.29c-.73,0-1.23.05-1.49.16-.22.1-.41.26-.55.49s-.21.48-.21.76c0,.35.13.83.4,1.44l.32.77,3.87,9.46,2.7-8.16c.35-1.05.52-1.83.52-2.34,0-.38-.07-.75-.21-1.12s-.32-.65-.54-.88c-.22-.22-.46-.37-.74-.46-.28-.09-.63-.14-1.06-.14v-.29h8.01v.29c-.49,0-.84.02-1.06.05-.22.03-.43.1-.62.21-.25.15-.45.36-.61.64-.15.28-.23.58-.23.9,0,.3.12.82.35,1.56l3.06,9.87,3.42-8.41c.53-1.29.8-2.28.8-2.99,0-.74-.24-1.26-.73-1.57-.3-.18-.75-.27-1.36-.27v-.29h5.77v.29c-.56.06-.98.16-1.26.32-.29.15-.57.43-.85.84-.41.58-.93,1.63-1.56,3.15l-5.12,12.4h-.51l-4.43-13.26-4.5,13.26h-.56l-5.57-13.4-.37-.91c-.26-.61-.47-1.06-.65-1.33-.17-.27-.39-.49-.63-.65-.2-.13-.42-.23-.65-.29-.23-.06-.56-.1-.98-.14v-.29Z"/>
      <path class="cls-26" d="M385.04,183.68h8.84v-4c0-.86-.05-1.49-.14-1.89-.1-.41-.27-.74-.53-1.01-.23-.24-.5-.42-.79-.52-.29-.11-.68-.17-1.16-.2v-.29h7.96v.29c-.47.03-.86.09-1.15.2s-.56.28-.79.52c-.26.27-.43.6-.53,1.01-.1.41-.14,1.04-.14,1.89v9.18c0,.85.05,1.47.14,1.88.1.41.27.75.53,1.02.23.23.5.41.79.52.29.11.68.18,1.15.21v.29h-7.96v-.29c.48-.03.87-.09,1.16-.21.29-.11.56-.28.79-.52.26-.26.43-.6.53-1.01.1-.41.14-1.04.14-1.89v-4.59h-8.84v4.59c0,.85.05,1.48.14,1.89.1.41.27.75.53,1.02.22.23.48.41.78.52.29.11.68.18,1.16.21v.29h-7.96v-.29c.48-.03.87-.09,1.16-.21.29-.11.56-.28.78-.52.27-.26.44-.6.54-1.01.09-.41.14-1.04.14-1.89v-9.18c0-.86-.05-1.49-.14-1.89-.09-.41-.27-.74-.54-1.01-.22-.24-.49-.42-.78-.52s-.68-.17-1.16-.2v-.29h7.96v.29c-.47.03-.86.09-1.15.2s-.56.28-.79.52c-.26.27-.43.6-.53,1.01-.1.41-.14,1.04-.14,1.89v4Z"/>
      <path class="cls-26" d="M413.83,175.77l.21,4.11h-.29c-.11-.69-.29-1.26-.54-1.72-.25-.46-.61-.86-1.08-1.21-.39-.29-.85-.5-1.38-.62-.53-.12-1.24-.18-2.12-.18h-2.85v7.47h.75c.76,0,1.32-.05,1.71-.15.38-.1.69-.28.93-.54.23-.24.4-.53.52-.85.11-.33.21-.81.28-1.45h.29s-.05,6.69-.05,6.69h-.29c-.07-.64-.18-1.15-.33-1.54-.14-.39-.35-.72-.6-1-.25-.26-.57-.46-.97-.59-.4-.12-.9-.19-1.52-.19h-.71v2.85c0,1.14.03,1.97.09,2.48.06.52.17.95.34,1.3.28.6.71,1.04,1.29,1.31.58.28,1.34.42,2.28.42,1,0,1.83-.13,2.5-.38.67-.25,1.22-.64,1.64-1.18.3-.36.54-.76.73-1.22.19-.46.36-1.06.52-1.81h.29s-.16,4.97-.16,4.97h-14.86v-.29c.47-.03.86-.09,1.15-.2.29-.11.56-.28.79-.52.26-.27.43-.61.53-1.02.1-.41.14-1.04.14-1.89v-9.18c0-.85-.05-1.48-.14-1.89-.1-.41-.27-.75-.53-1.01-.22-.24-.48-.42-.78-.52-.3-.11-.68-.17-1.17-.2v-.29h13.39Z"/>
      <path class="cls-26" d="M421.67,184.45v4.41c0,.85.05,1.48.14,1.89.1.41.27.75.53,1.01.22.23.48.41.78.52.3.11.68.18,1.17.2v.29h-7.96v-.29c.48-.02.87-.09,1.17-.2.29-.11.55-.28.78-.52.27-.26.44-.6.54-1.01.09-.41.14-1.04.14-1.89v-9.18c0-.86-.05-1.49-.14-1.89-.09-.41-.27-.74-.54-1.01-.22-.24-.48-.42-.78-.52-.3-.11-.68-.17-1.16-.2v-.29h6c1,0,1.66,0,1.98.01,1.29.06,2.3.23,3.03.52.82.33,1.46.83,1.91,1.49.45.66.68,1.43.68,2.3,0,1.3-.49,2.33-1.47,3.11-.3.23-.63.42-.99.57-.36.15-.84.29-1.45.42.5.21.87.42,1.11.65.19.17.36.39.52.65.16.26.39.72.71,1.39.74,1.52,1.3,2.63,1.68,3.33.38.7.69,1.21.95,1.53.21.26.41.43.6.53.19.1.46.17.8.2v.29h-4.13c-.21-.46-.34-.75-.4-.87l-.87-1.98c-.52-1.19-1.05-2.24-1.58-3.15-.53-.9-1.02-1.52-1.46-1.85-.23-.17-.47-.29-.72-.35-.26-.07-.57-.11-.95-.11h-.61ZM421.67,184.18h.47c1.03,0,1.77-.06,2.21-.17.44-.12.86-.36,1.25-.72.87-.83,1.31-1.86,1.31-3.09,0-.66-.13-1.27-.38-1.85-.25-.58-.6-1.05-1.05-1.43-.35-.28-.76-.48-1.25-.59-.48-.11-1.17-.17-2.05-.17h-.51v8.02Z"/>
      <path class="cls-26" d="M446.23,175.77l.21,4.11h-.29c-.11-.69-.29-1.26-.54-1.72-.25-.46-.61-.86-1.08-1.21-.39-.29-.85-.5-1.38-.62-.53-.12-1.24-.18-2.12-.18h-2.85v7.47h.75c.76,0,1.32-.05,1.71-.15.38-.1.69-.28.93-.54.23-.24.4-.53.52-.85.11-.33.21-.81.28-1.45h.29s-.05,6.69-.05,6.69h-.29c-.07-.64-.18-1.15-.33-1.54-.14-.39-.35-.72-.6-1-.25-.26-.57-.46-.97-.59-.4-.12-.9-.19-1.52-.19h-.71v2.85c0,1.14.03,1.97.09,2.48.06.52.17.95.34,1.3.28.6.71,1.04,1.29,1.31.58.28,1.34.42,2.28.42,1,0,1.83-.13,2.5-.38.67-.25,1.22-.64,1.64-1.18.3-.36.54-.76.73-1.22.19-.46.36-1.06.52-1.81h.29s-.16,4.97-.16,4.97h-14.86v-.29c.47-.03.86-.09,1.15-.2.29-.11.56-.28.79-.52.26-.27.43-.61.53-1.02.1-.41.14-1.04.14-1.89v-9.18c0-.85-.05-1.48-.14-1.89-.1-.41-.27-.75-.53-1.01-.22-.24-.48-.42-.78-.52-.3-.11-.68-.17-1.17-.2v-.29h13.39Z"/>
      <path class="cls-26" d="M460.45,183.89v4.97c0,.85.05,1.47.14,1.87.09.4.26.74.52,1.02.22.24.49.42.79.53.3.11.69.18,1.17.21v.29h-7.96v-.29c.4,0,.78-.06,1.13-.19s.64-.3.83-.52c.23-.26.4-.61.5-1.06.1-.45.15-1.07.15-1.86v-9.18c0-.53-.03-1.08-.09-1.66-.08-.73-.44-1.27-1.07-1.63-.35-.19-.83-.31-1.46-.34v-.29h13.01l.36,4.05-.29.06c-.21-.63-.4-1.1-.57-1.42-.39-.72-.94-1.28-1.64-1.68-.41-.23-.88-.4-1.41-.49-.53-.09-1.26-.14-2.19-.14h-1.93v7.35h.5c1.47,0,2.54-.33,3.2-.98.29-.28.51-.62.66-1,.15-.39.25-.89.3-1.51h.29s-.07,7.56-.07,7.56h-.3c-.09-.85-.25-1.5-.47-1.96-.22-.46-.55-.83-1-1.12-.33-.21-.74-.36-1.23-.45-.49-.1-1.11-.14-1.87-.14"/>
      <path class="cls-26" d="M476.95,175.77v.29c-.47.03-.86.09-1.15.2-.3.11-.56.28-.79.52-.32.33-.52.79-.6,1.38-.05.44-.08.95-.08,1.52v9.18c0,.69.03,1.23.1,1.63.07.4.17.72.32.96.22.33.49.58.83.74.34.16.79.26,1.36.29v.29h-7.96v-.29c.48-.03.87-.09,1.16-.21.29-.11.55-.28.78-.51.26-.27.44-.6.54-1.01.09-.41.14-1.04.14-1.89v-9.18c0-.86-.05-1.49-.14-1.89-.09-.41-.27-.74-.54-1.01-.22-.24-.49-.42-.78-.52-.3-.11-.69-.17-1.16-.2v-.29h7.96Z"/>
      <path class="cls-26" d="M481.3,178.03v10.83c0,.86.05,1.49.14,1.89.1.41.27.74.53,1.01.23.24.5.42.79.52.29.11.68.17,1.15.2v.29h-5.74v-.29c.47-.02.86-.09,1.15-.2.29-.11.56-.28.79-.52.26-.27.43-.6.53-1.02.1-.41.14-1.04.14-1.89v-9.19c0-.84-.05-1.46-.14-1.87-.1-.41-.27-.75-.53-1.01-.22-.24-.48-.42-.78-.52-.29-.11-.68-.17-1.16-.2v-.29h4.79l10.11,12.9v-8.99c0-.86-.05-1.49-.14-1.89-.1-.41-.27-.74-.53-1.01-.23-.24-.5-.42-.79-.52s-.68-.17-1.15-.2v-.29h5.74v.29c-.83,0-1.48.24-1.94.72-.26.26-.43.6-.53,1.01s-.14,1.04-.14,1.87v13.1h-.56l-11.73-14.74Z"/>
      <path class="cls-26" d="M514.77,192.77h-8.18v-.29c.74-.07,1.25-.19,1.54-.37.51-.32.77-.77.77-1.35,0-.34-.12-.8-.35-1.37l-.21-.52-1.2-2.94h-5.48l-.65,1.72-.31.77c-.37.91-.56,1.63-.56,2.15,0,.31.07.59.2.86.14.26.32.48.55.65.32.22.74.36,1.25.4v.29h-5.58v-.29c.44-.03.83-.13,1.16-.32.33-.19.66-.5.97-.92.26-.34.52-.78.78-1.31.25-.54.59-1.34,1-2.41l4.56-11.74h.71l5.42,13.09c.41.99.73,1.69.97,2.12.24.42.5.74.78.96.2.15.43.26.68.34.26.08.64.15,1.16.21v.29ZM506.95,185.43l-2.62-6.45-2.47,6.45h5.08Z"/>
      <path class="cls-26" d="M518.24,178.03v10.83c0,.86.05,1.49.14,1.89.1.41.27.74.53,1.01.23.24.5.42.79.52.29.11.68.17,1.15.2v.29h-5.74v-.29c.47-.02.86-.09,1.15-.2.29-.11.56-.28.79-.52.26-.27.43-.6.53-1.02.1-.41.14-1.04.14-1.89v-9.19c0-.84-.05-1.46-.14-1.87-.1-.41-.27-.75-.53-1.01-.22-.24-.48-.42-.78-.52-.29-.11-.68-.17-1.16-.2v-.29h4.79l10.11,12.9v-8.99c0-.86-.05-1.49-.14-1.89-.1-.41-.27-.74-.53-1.01-.23-.24-.5-.42-.79-.52s-.68-.17-1.15-.2v-.29h5.74v.29c-.83,0-1.48.24-1.94.72-.26.26-.43.6-.53,1.01s-.14,1.04-.14,1.87v13.1h-.56l-11.73-14.74Z"/>
      <path class="cls-26" d="M549.7,175.69l.15,5.57h-.29c-.09-.24-.16-.42-.21-.55-.29-.8-.53-1.39-.71-1.78-.33-.7-.79-1.34-1.41-1.92-.46-.44-.95-.76-1.44-.96-.5-.2-1.06-.3-1.68-.3-.94,0-1.75.2-2.44.61-.61.36-1.17.87-1.69,1.54-.52.67-.95,1.43-1.28,2.28-.47,1.2-.71,2.57-.71,4.11,0,1.31.16,2.48.49,3.53.32,1.04.8,1.92,1.42,2.63,1.14,1.31,2.67,1.97,4.56,1.97.95,0,1.8-.16,2.55-.49.76-.33,1.34-.79,1.76-1.39.48-.69.83-1.62,1.05-2.79l.29.05c-.16,1.31-.52,2.35-1.07,3.12-.53.74-1.26,1.3-2.2,1.69-.93.39-2.02.58-3.24.58-1.14,0-2.24-.17-3.29-.51-1.67-.55-2.97-1.54-3.91-2.97-.94-1.43-1.41-3.14-1.41-5.12,0-1.52.27-2.92.82-4.2.55-1.28,1.31-2.31,2.29-3.1.76-.6,1.66-1.07,2.71-1.42,1.05-.35,2.1-.53,3.16-.53s2.07.19,3.19.57l1.02.34c.2.07.37.11.52.11.21,0,.38-.09.51-.26.06-.08.13-.22.21-.41h.3Z"/>
      <path class="cls-26" d="M564.84,175.77l.21,4.11h-.29c-.11-.69-.29-1.26-.54-1.72-.25-.46-.61-.86-1.08-1.21-.39-.29-.85-.5-1.38-.62-.53-.12-1.24-.18-2.12-.18h-2.85v7.47h.75c.76,0,1.32-.05,1.71-.15.38-.1.69-.28.93-.54.23-.24.4-.53.52-.85.11-.33.21-.81.28-1.45h.29s-.05,6.69-.05,6.69h-.29c-.07-.64-.18-1.15-.33-1.54-.14-.39-.35-.72-.6-1-.25-.26-.57-.46-.97-.59-.4-.12-.9-.19-1.52-.19h-.71v2.85c0,1.14.03,1.97.09,2.48.06.52.17.95.34,1.3.28.6.71,1.04,1.29,1.31.58.28,1.34.42,2.28.42,1,0,1.83-.13,2.5-.38.67-.25,1.22-.64,1.64-1.18.3-.36.54-.76.73-1.22.19-.46.36-1.06.52-1.81h.29s-.16,4.97-.16,4.97h-14.86v-.29c.47-.03.86-.09,1.15-.2.29-.11.56-.28.79-.52.26-.27.43-.61.53-1.02.1-.41.14-1.04.14-1.89v-9.18c0-.85-.05-1.48-.14-1.89-.1-.41-.27-.75-.53-1.01-.22-.24-.48-.42-.78-.52-.3-.11-.68-.17-1.17-.2v-.29h13.39Z"/>
      <path class="cls-26" d="M595.22,176.06c-.47.03-.85.09-1.14.19-.29.1-.55.28-.79.52-.18.17-.32.37-.41.58-.09.21-.15.48-.19.8-.06.43-.09.94-.09,1.53v9.18c0,.86.05,1.49.15,1.9.1.42.28.75.53,1,.46.44,1.1.68,1.93.72v.29h-7.96v-.29c.48-.03.87-.09,1.16-.21.3-.11.56-.28.79-.51.26-.27.43-.61.53-1.02.1-.41.14-1.04.14-1.89v-11.13l-6.41,15.04h-.26l-6.38-14.82v10.91c0,.86.05,1.49.14,1.89.1.41.27.74.53,1.01.23.24.49.42.79.52.29.11.68.17,1.15.2v.29h-5.74v-.29c.47-.03.86-.09,1.15-.2.29-.11.56-.28.79-.52.26-.27.43-.61.53-1.02.1-.41.14-1.04.14-1.89v-9.18c0-.38-.01-.74-.04-1.08-.04-.61-.14-1.06-.29-1.34-.21-.39-.49-.68-.85-.87-.36-.19-.84-.3-1.44-.33v-.29h5.4l5.39,13.31,5.59-13.31h5.12v.29Z"/>
      <path class="cls-26" d="M609.84,175.77l.21,4.11h-.29c-.11-.69-.29-1.26-.53-1.72-.25-.46-.61-.86-1.08-1.21-.39-.29-.85-.5-1.38-.62-.53-.12-1.24-.18-2.12-.18h-2.85v7.47h.75c.76,0,1.32-.05,1.71-.15.38-.1.69-.28.93-.54.23-.24.4-.53.52-.85.11-.33.21-.81.28-1.45h.29s-.05,6.69-.05,6.69h-.29c-.07-.64-.18-1.15-.33-1.54-.14-.39-.35-.72-.6-1-.25-.26-.57-.46-.97-.59-.4-.12-.9-.19-1.52-.19h-.71v2.85c0,1.14.03,1.97.09,2.48.06.52.17.95.34,1.3.28.6.71,1.04,1.29,1.31.58.28,1.34.42,2.29.42,1,0,1.83-.13,2.5-.38.67-.25,1.22-.64,1.64-1.18.3-.36.54-.76.73-1.22.19-.46.36-1.06.52-1.81h.29s-.16,4.97-.16,4.97h-14.86v-.29c.47-.03.86-.09,1.15-.2.3-.11.56-.28.79-.52.26-.27.43-.61.53-1.02.1-.41.14-1.04.14-1.89v-9.18c0-.85-.05-1.48-.14-1.89-.1-.41-.27-.75-.53-1.01-.22-.24-.48-.42-.78-.52-.29-.11-.68-.17-1.16-.2v-.29h13.39Z"/>
      <path class="cls-26" d="M625.73,175.77l.21,4.11h-.29c-.11-.69-.29-1.26-.53-1.72-.25-.46-.61-.86-1.08-1.21-.39-.29-.85-.5-1.38-.62-.53-.12-1.24-.18-2.12-.18h-2.85v7.47h.75c.76,0,1.32-.05,1.71-.15.38-.1.69-.28.93-.54.23-.24.4-.53.52-.85.11-.33.21-.81.28-1.45h.29s-.05,6.69-.05,6.69h-.29c-.07-.64-.18-1.15-.33-1.54-.14-.39-.35-.72-.6-1-.25-.26-.57-.46-.97-.59-.4-.12-.9-.19-1.52-.19h-.71v2.85c0,1.14.03,1.97.09,2.48.06.52.17.95.34,1.3.28.6.71,1.04,1.29,1.31.58.28,1.34.42,2.29.42,1,0,1.83-.13,2.5-.38.67-.25,1.22-.64,1.64-1.18.3-.36.54-.76.73-1.22.19-.46.36-1.06.52-1.81h.29s-.16,4.97-.16,4.97h-14.86v-.29c.47-.03.86-.09,1.15-.2.3-.11.56-.28.79-.52.26-.27.43-.61.53-1.02.1-.41.14-1.04.14-1.89v-9.18c0-.85-.05-1.48-.14-1.89-.1-.41-.27-.75-.53-1.01-.22-.24-.48-.42-.78-.52-.29-.11-.68-.17-1.16-.2v-.29h13.39Z"/>
      <path class="cls-26" d="M634.96,176.16c-.52,0-1.08.02-1.68.05-1.28.07-2.23.23-2.86.49-.63.26-1.14.7-1.55,1.33-.37.58-.66,1.37-.86,2.37l-.29-.02.22-4.6h16.85l.22,4.6-.29.02c-.22-1.15-.57-2.03-1.05-2.62-.48-.59-1.17-1.02-2.09-1.28-.77-.22-2.08-.34-3.92-.34v12.7c0,.85.05,1.48.14,1.89.1.41.27.75.53,1.02.23.24.5.42.79.52.3.11.68.17,1.15.2v.29h-7.96v-.29c.48-.03.87-.09,1.16-.2.3-.11.56-.28.79-.52.26-.27.43-.6.53-1.01.1-.41.14-1.04.14-1.89v-12.7Z"/>
      <path class="cls-26" d="M646.35,192.72l.04-5.14h.29c.35,1.32.76,2.35,1.25,3.11.9,1.39,2.04,2.09,3.41,2.09.95,0,1.74-.32,2.36-.96.62-.64.93-1.45.93-2.43,0-.42-.07-.85-.2-1.29s-.32-.82-.55-1.13c-.24-.32-.58-.63-1.01-.93-.44-.3-1.1-.68-2-1.13-.79-.4-1.39-.73-1.81-1.01-.42-.27-.76-.55-1.02-.83-.71-.78-1.07-1.73-1.07-2.85,0-.69.14-1.35.42-1.99.28-.64.67-1.19,1.16-1.64.88-.81,1.92-1.22,3.12-1.22.39,0,.75.04,1.08.12.33.08.78.24,1.33.47.42.17.7.27.85.32.15.04.28.07.4.07.29,0,.49-.21.59-.63h.29l.09,4.94h-.29c-.22-.79-.42-1.39-.58-1.81-.16-.42-.36-.81-.58-1.16-.41-.65-.85-1.13-1.34-1.44-.49-.31-1.05-.47-1.69-.47-.93,0-1.66.32-2.2.95-.22.26-.4.56-.53.91-.13.35-.19.7-.19,1.05,0,1.39.89,2.51,2.67,3.35l1.75.85c1.35.64,2.33,1.35,2.92,2.12.68.86,1.02,1.87,1.02,3.02,0,.76-.15,1.49-.46,2.19-.43.97-1.08,1.72-1.94,2.24-.86.53-1.88.79-3.05.79-1.07,0-2.1-.21-3.09-.63-.52-.22-.82-.35-.92-.39-.1-.03-.21-.05-.34-.05-.4,0-.67.2-.82.6h-.29Z"/>
      <path class="cls-26" d="M670.65,183.89v4.97c0,.85.05,1.47.14,1.87.09.4.27.74.52,1.02.22.24.49.42.79.53.3.11.69.18,1.16.21v.29h-7.96v-.29c.4,0,.78-.06,1.13-.19.36-.13.64-.3.84-.52.23-.26.4-.61.5-1.06.1-.45.15-1.07.15-1.86v-9.18c0-.53-.03-1.08-.09-1.66-.08-.73-.44-1.27-1.07-1.63-.35-.19-.83-.31-1.46-.34v-.29h13.01l.36,4.05-.29.06c-.21-.63-.4-1.1-.57-1.42-.39-.72-.94-1.28-1.64-1.68-.41-.23-.88-.4-1.41-.49-.53-.09-1.26-.14-2.19-.14h-1.93v7.35h.5c1.47,0,2.54-.33,3.2-.98.29-.28.51-.62.66-1,.15-.39.25-.89.3-1.51h.29s-.07,7.56-.07,7.56h-.3c-.09-.85-.25-1.5-.47-1.96-.22-.46-.55-.83-1-1.12-.33-.21-.74-.36-1.23-.45-.48-.1-1.11-.14-1.87-.14"/>
      <path class="cls-26" d="M679.77,184.39c0-1.39.3-2.69.9-3.88.6-1.19,1.47-2.23,2.62-3.12.85-.66,1.78-1.16,2.76-1.51.99-.35,1.99-.53,2.99-.53,1.28,0,2.52.28,3.71.84,1.19.56,2.24,1.35,3.14,2.37,1.46,1.66,2.19,3.55,2.19,5.67,0,1.06-.19,2.09-.57,3.08-.38.99-.94,1.89-1.67,2.7-.9,1.01-1.96,1.8-3.18,2.35-1.22.56-2.5.83-3.84.83s-2.58-.27-3.79-.81c-1.2-.54-2.24-1.31-3.11-2.29-.69-.77-1.22-1.65-1.59-2.64-.37-.98-.55-2.01-.55-3.07M682.79,184.57c0,2.41.66,4.44,1.97,6.09.59.74,1.21,1.28,1.87,1.61.66.34,1.42.51,2.29.51s1.64-.17,2.3-.5c.66-.33,1.29-.87,1.89-1.62,1.31-1.66,1.97-3.71,1.97-6.14,0-1.34-.18-2.6-.54-3.79-.36-1.19-.87-2.21-1.52-3.04-.53-.68-1.12-1.18-1.77-1.49-.65-.31-1.42-.47-2.31-.47s-1.64.15-2.29.46c-.64.31-1.24.81-1.79,1.49-.66.82-1.16,1.83-1.52,3.03-.36,1.2-.54,2.48-.54,3.85"/>
      <path class="cls-26" d="M705.21,184.45v4.41c0,.85.05,1.48.14,1.89.09.41.27.75.53,1.01.22.23.48.41.78.52.29.11.68.18,1.16.2v.29h-7.96v-.29c.48-.02.87-.09,1.16-.2.29-.11.55-.28.78-.52.27-.26.45-.6.54-1.01.09-.41.14-1.04.14-1.89v-9.18c0-.86-.05-1.49-.14-1.89-.09-.41-.27-.74-.54-1.01-.22-.24-.48-.42-.78-.52-.3-.11-.68-.17-1.16-.2v-.29h6c1,0,1.66,0,1.98.01,1.29.06,2.3.23,3.03.52.82.33,1.46.83,1.91,1.49.45.66.68,1.43.68,2.3,0,1.3-.49,2.33-1.47,3.11-.3.23-.63.42-.99.57-.36.15-.84.29-1.45.42.5.21.87.42,1.11.65.19.17.36.39.52.65.16.26.39.72.71,1.39.74,1.52,1.3,2.63,1.67,3.33.38.7.7,1.21.95,1.53.21.26.41.43.6.53.2.1.46.17.8.2v.29h-4.13c-.21-.46-.34-.75-.4-.87l-.87-1.98c-.52-1.19-1.05-2.24-1.58-3.15-.53-.9-1.02-1.52-1.46-1.85-.22-.17-.47-.29-.72-.35-.26-.07-.57-.11-.95-.11h-.61ZM705.21,184.18h.47c1.03,0,1.77-.06,2.21-.17.44-.12.86-.36,1.25-.72.87-.83,1.31-1.86,1.31-3.09,0-.66-.13-1.27-.38-1.85-.25-.58-.6-1.05-1.05-1.43-.35-.28-.76-.48-1.24-.59-.48-.11-1.17-.17-2.05-.17h-.51v8.02Z"/>
      <path class="cls-26" d="M716.99,192.72l.04-5.14h.29c.35,1.32.76,2.35,1.25,3.11.91,1.39,2.04,2.09,3.41,2.09.95,0,1.74-.32,2.36-.96.62-.64.93-1.45.93-2.43,0-.42-.07-.85-.2-1.29-.14-.44-.32-.82-.55-1.13-.24-.32-.58-.63-1.02-.93-.44-.3-1.1-.68-2-1.13-.79-.4-1.39-.73-1.81-1.01-.42-.27-.76-.55-1.02-.83-.71-.78-1.07-1.73-1.07-2.85,0-.69.14-1.35.42-1.99.28-.64.67-1.19,1.16-1.64.88-.81,1.92-1.22,3.12-1.22.39,0,.75.04,1.08.12.33.08.78.24,1.33.47.41.17.7.27.85.32.15.04.28.07.4.07.29,0,.49-.21.59-.63h.29l.09,4.94h-.29c-.22-.79-.42-1.39-.58-1.81-.16-.42-.36-.81-.58-1.16-.41-.65-.85-1.13-1.34-1.44-.49-.31-1.05-.47-1.69-.47-.93,0-1.66.32-2.2.95-.22.26-.4.56-.53.91-.13.35-.19.7-.19,1.05,0,1.39.89,2.51,2.67,3.35l1.75.85c1.35.64,2.33,1.35,2.92,2.12.68.86,1.02,1.87,1.02,3.02,0,.76-.15,1.49-.46,2.19-.43.97-1.08,1.72-1.94,2.24-.86.53-1.88.79-3.05.79-1.07,0-2.1-.21-3.09-.63-.52-.22-.82-.35-.92-.39-.1-.03-.21-.05-.34-.05-.4,0-.67.2-.82.6h-.29Z"/>
      <path class="cls-26" d="M737.53,175.77v.29c-.47.03-.86.09-1.15.2-.29.11-.56.28-.79.52-.32.33-.52.79-.6,1.38-.05.44-.08.95-.08,1.52v9.18c0,.69.03,1.23.1,1.63.07.4.17.72.32.96.22.33.49.58.83.74.34.16.79.26,1.36.29v.29h-7.96v-.29c.48-.03.87-.09,1.16-.21.29-.11.55-.28.78-.51.27-.27.45-.6.54-1.01.09-.41.14-1.04.14-1.89v-9.18c0-.86-.05-1.49-.14-1.89-.09-.41-.27-.74-.54-1.01-.22-.24-.48-.42-.78-.52-.3-.11-.68-.17-1.16-.2v-.29h7.96Z"/>
      <path class="cls-26" d="M754.34,175.77l.15,5.42-.29.03c-.57-1.84-1.31-3.21-2.2-4.12-.9-.9-1.98-1.35-3.25-1.35-.99,0-1.84.2-2.55.6-.71.4-1.37,1.06-1.99,1.96-1.25,1.85-1.87,3.97-1.87,6.35,0,1.14.15,2.21.45,3.22.3,1.01.73,1.9,1.31,2.67,1.11,1.49,2.47,2.24,4.07,2.24.63,0,1.22-.13,1.78-.4.56-.26,1.01-.63,1.37-1.1.49-.65.73-1.41.73-2.3,0-.82-.22-1.42-.66-1.78-.45-.37-1.18-.55-2.2-.55v-.29h7.94v.29c-.73.07-1.24.17-1.54.3-.29.14-.51.37-.65.7-.16.37-.24,1.09-.24,2.18,0,.3.02.76.05,1.39l.02.28c-.32-.11-.55-.17-.7-.17-.18,0-.41.1-.7.29-.72.5-1.56.88-2.52,1.15-.95.26-1.96.4-3.03.4-1.46,0-2.78-.25-3.95-.75-1.17-.5-2.13-1.21-2.86-2.14-.55-.7-.97-1.53-1.26-2.49-.3-.96-.44-1.98-.44-3.06,0-1.49.27-2.87.8-4.15.53-1.28,1.28-2.33,2.24-3.16.79-.67,1.7-1.19,2.73-1.56,1.03-.37,2.12-.55,3.26-.55.66,0,1.28.06,1.85.19.57.12,1.17.33,1.81.61l.73.34c.18.07.35.11.5.11.33,0,.59-.27.76-.81h.32Z"/>
      <path class="cls-26" d="M763.25,183.68h8.84v-4c0-.86-.05-1.49-.14-1.89-.1-.41-.27-.74-.53-1.01-.23-.24-.5-.42-.79-.52-.3-.11-.68-.17-1.16-.2v-.29h7.96v.29c-.47.03-.86.09-1.15.2-.29.11-.56.28-.79.52-.26.27-.43.6-.53,1.01-.1.41-.14,1.04-.14,1.89v9.18c0,.85.05,1.47.14,1.88.1.41.27.75.53,1.02.23.23.5.41.79.52.29.11.68.18,1.15.21v.29h-7.96v-.29c.48-.03.87-.09,1.16-.21.29-.11.56-.28.79-.52.26-.26.43-.6.53-1.01.1-.41.14-1.04.14-1.89v-4.59h-8.84v4.59c0,.85.05,1.48.14,1.89.09.41.27.75.53,1.02.22.23.48.41.78.52.29.11.68.18,1.16.21v.29h-7.96v-.29c.48-.03.87-.09,1.16-.21.29-.11.55-.28.78-.52.27-.26.45-.6.54-1.01.09-.41.14-1.04.14-1.89v-9.18c0-.86-.05-1.49-.14-1.89-.09-.41-.27-.74-.54-1.01-.22-.24-.48-.42-.78-.52-.3-.11-.68-.17-1.16-.2v-.29h7.96v.29c-.47.03-.86.09-1.15.2-.3.11-.56.28-.79.52-.26.27-.43.6-.53,1.01-.1.41-.14,1.04-.14,1.89v4Z"/>
      <path class="cls-26" d="M785.38,176.16c-.52,0-1.08.02-1.68.05-1.28.07-2.23.23-2.86.49-.63.26-1.14.7-1.55,1.33-.37.58-.66,1.37-.86,2.37l-.29-.02.22-4.6h16.85l.22,4.6-.29.02c-.22-1.15-.57-2.03-1.05-2.62-.48-.59-1.17-1.02-2.09-1.28-.77-.22-2.08-.34-3.92-.34v12.7c0,.85.05,1.48.14,1.89.09.41.27.75.53,1.02.23.24.5.42.79.52.29.11.68.17,1.15.2v.29h-7.96v-.29c.48-.03.87-.09,1.16-.2.3-.11.56-.28.79-.52.26-.27.43-.6.53-1.01.1-.41.14-1.04.14-1.89v-12.7Z"/>
    </g>
  </g>
</svg>